<svg width="22" height="22" viewBox="0 0 22 22" fill="none" xmlns="http://www.w3.org/2000/svg">
<path d="M10.9999 20.0791C10.8432 20.0791 10.6919 20.0513 10.5462 19.9959C10.4003 19.9404 10.2686 19.8539 10.1511 19.7362L4.99188 14.577C4.76333 14.3486 4.64905 14.0657 4.64905 13.7282C4.64905 13.3907 4.76333 13.1077 4.99188 12.8793C5.22701 12.6355 5.51163 12.5153 5.84576 12.5186C6.17988 12.5218 6.46115 12.6421 6.68955 12.8793L9.78536 15.9651V2.61152C9.78536 2.27419 9.90346 1.98742 10.1397 1.75123C10.3757 1.51503 10.6625 1.39694 10.9999 1.39694C11.3374 1.39694 11.6242 1.51503 11.8602 1.75123C12.0964 1.98742 12.2145 2.27419 12.2145 2.61152V15.9651L15.3003 12.8793C15.5441 12.6355 15.8309 12.5136 16.1608 12.5136C16.4905 12.5136 16.7772 12.6355 17.0211 12.8793C17.2582 13.123 17.3746 13.4098 17.3703 13.7396C17.366 14.0695 17.2496 14.3486 17.0211 14.577L11.8618 19.7362C11.7442 19.8539 11.6104 19.9404 11.4603 19.9959C11.3102 20.0513 11.1567 20.0791 10.9999 20.0791Z" fill="#ffffffff"/>
</svg>
