<svg width="20" height="20" viewBox="0 0 20 20" fill="none" xmlns="http://www.w3.org/2000/svg">
<g clip-path="url(#clip0_110_58)">
<path fill-rule="evenodd" clip-rule="evenodd" d="M10 0C4.48 0 0 4.48 0 10C0 15.52 4.48 20 10 20C15.51 20 20 15.52 20 10C20 4.48 15.51 0 10 0ZM16.605 4.61C17.8362 6.10899 18.5177 7.98402 18.5363 9.92375C18.2538 9.87 15.4338 9.295 12.5925 9.6525C12.5275 9.5125 12.4725 9.36 12.4075 9.20875C12.2337 8.79625 12.0388 8.37375 11.8438 7.97125C14.9888 6.6925 16.4212 4.84875 16.6062 4.60875L16.605 4.61ZM10 1.475C12.1688 1.475 14.1537 2.2875 15.6625 3.6225C15.51 3.84 14.2188 5.56375 11.1825 6.7025C9.7825 4.1325 8.2325 2.0275 7.99375 1.7025C8.65148 1.5495 9.32471 1.47316 10 1.475ZM6.36625 2.2775C7.5111 3.86364 8.5685 5.51109 9.53375 7.2125C5.5425 8.275 2.0175 8.25375 1.6375 8.25375C1.91277 6.96109 2.48269 5.74941 3.30288 4.71305C4.12308 3.6767 5.17141 2.84239 6.36625 2.2775ZM1.45375 10.0125V9.75C1.8225 9.7625 5.96625 9.81625 10.2287 8.53625C10.4775 9.0125 10.705 9.50125 10.9225 9.98875L10.585 10.0863C6.1825 11.5075 3.84 15.39 3.64375 15.7162C2.23384 14.1506 1.45367 12.1182 1.45375 10.0112V10.0125ZM10 18.5462C8.10218 18.5478 6.25843 17.9141 4.7625 16.7463C4.9125 16.4313 6.64875 13.0913 11.4637 11.41C11.4862 11.3988 11.4963 11.3988 11.5188 11.3888C12.3301 13.4843 12.94 15.6525 13.34 17.8638C12.2852 18.3178 11.1484 18.5501 10 18.5462ZM14.7625 17.0825C14.675 16.5613 14.2188 14.0675 13.1025 10.9975C15.7813 10.575 18.1237 11.2688 18.4162 11.3663C18.2344 12.5197 17.8157 13.623 17.1867 14.6067C16.5577 15.5905 15.7319 16.4334 14.7613 17.0825H14.7625Z" fill="#ffffffff"/>
</g>
<defs>
<clipPath id="clip0_110_58">
<rect width="20" height="20" fill="white"/>
</clipPath>
</defs>
</svg>
